# xmcd
#
# Track frame offsets: 
#        151
#        21371
#        36640
#        55577
#        83508
#        103353
#        123646
#        144991
#        160784
#        175977
#        209932
#        236071
#        257368
#        279401
#        298834
#
# Disc length: 4305 seconds
#
# Revision: 0
# Processed by: cddbd v1.5.1PL2 Copyright (c) Steve Scherf et al.
# Submitted via: ExactAudioCopy v0.95b3
#
DISCID=e310cf0f
DTITLE=Lata Mangeshkar - Mushkil Hai Jeena
DYEAR=1999
DGENRE=Hindi
TTITLE0=Yun Hasraton Ke Daagh
TTITLE1=Apni Kushi Se Apna Hi
TTITLE2=Hai Tere Saath Meri Wafa
TTITLE3=Aaj Socha To Aansoo Bharaaye
TTITLE4=Hum Hain Mataa-E-Koocha
TTITLE5=Jeena Hum Ko Raas Na Aaya
TTITLE6=Mujhe Pyaar Karne Ka Haq
TTITLE7=Har Khushi Ho Wahan
TTITLE8=Aaj Kal Mein Dhal Gaya
TTITLE9=Mujhe Yaad Karne Wale
TTITLE10=Mushkil Hai Jeena
TTITLE11=Hum Tere Pyaar Mein
TTITLE12=Rasim-E-Ulfat Jo Nibhayen
TTITLE13=Jab Jab Bahar Aayee
TTITLE14=Pyaar Kya Hota Hai
EXTD=
EXTT0=
EXTT1=
EXTT2=
EXTT3=
EXTT4=
EXTT5=
EXTT6=
EXTT7=
EXTT8=
EXTT9=
EXTT10=
EXTT11=
EXTT12=
EXTT13=
EXTT14=
PLAYORDER=
